<svg width="48" height="48" viewBox="0 0 48 48" fill="none" xmlns="http://www.w3.org/2000/svg">
<g clip-path="url(#clip0_965_120)">
<g clip-path="url(#clip1_965_120)">
<path d="M24.3406 22.8025C28.6448 22.8025 31.9925 19.3071 31.9925 15.0173C31.9925 10.7276 28.4854 7.39111 24.1812 7.39111C19.877 7.39111 16.5293 10.8865 16.5293 15.0173C16.5293 19.3071 20.0364 22.8025 24.3406 22.8025ZM24.1812 10.5687C24.3406 10.5687 24.3406 10.5687 24.1812 10.5687C26.7318 10.5687 28.8042 12.6342 28.8042 15.1762C28.8042 17.7183 26.7318 19.6249 24.1812 19.6249C21.6306 19.6249 19.7176 17.5594 19.7176 15.1762C19.7176 12.6342 21.79 10.5687 24.1812 10.5687V10.5687Z" fill="#0D5C63"/>
<path d="M47.9335 21.8487C44.9046 19.1477 40.9193 17.7178 36.7745 17.8767H35.4992C35.1804 19.1477 34.7021 20.2599 34.0645 21.2132C35.0209 21.0543 35.818 21.0543 36.7745 21.0543C39.8034 20.8954 42.8323 21.8487 45.2235 23.5964V35.0357H48.4118V22.3253L47.9335 21.8487Z" fill="#0D5C63"/>
<path d="M33.1088 7.70826C33.9058 5.8017 36.1376 4.84842 38.21 5.64282C40.123 6.43722 41.0795 8.66154 40.2824 10.727C39.6448 12.1569 38.21 13.1102 36.7753 13.1102C36.4565 13.1102 35.9782 13.1102 35.6594 12.9513C35.8188 13.7457 35.8188 14.5401 35.8188 15.1756V16.1289C36.1376 16.1289 36.4565 16.2878 36.7753 16.2878C40.7607 16.2878 43.949 13.1102 43.949 9.29706C43.949 5.32506 40.7607 2.14746 36.9347 2.14746C34.3841 2.14746 32.1523 3.4185 30.877 5.64282C31.674 6.11946 32.4711 6.75498 33.1088 7.70826V7.70826Z" fill="#0D5C63"/>
<path d="M14.9352 21.3724C14.2975 20.4191 13.8193 19.3069 13.5005 18.0359H12.2252C8.08037 17.877 4.09501 19.3069 1.06613 21.849L0.587891 22.3257V35.0361H3.77618V23.5967C6.32681 21.849 9.19628 20.8957 12.2252 21.0546C13.1816 21.0546 14.1381 21.2135 14.9352 21.3724Z" fill="#0D5C63"/>
<path d="M12.2246 16.1295C12.5435 16.1295 12.8623 16.1295 13.1811 15.9706V15.0174C13.1811 14.223 13.1811 13.4286 13.3405 12.793C13.0217 12.9519 12.5435 12.9519 12.2246 12.9519C10.1522 12.9519 8.39869 11.2042 8.39869 9.1388C8.39869 7.07336 10.1522 5.32568 12.2246 5.32568C13.8188 5.32568 15.2535 6.27896 15.8912 7.70888C16.5288 6.91448 17.4853 6.12008 18.2824 5.48456C16.21 2.14809 11.9058 1.03593 8.5581 3.10136C5.2104 5.1668 4.09449 9.45656 6.16688 12.793C7.4422 14.8585 9.674 16.1295 12.2246 16.1295V16.1295Z" fill="#0D5C63"/>
<path d="M37.4128 31.3817L37.094 30.9051C33.9057 27.4097 29.4421 25.3443 24.6596 25.5032C19.8772 25.3443 15.2542 27.4097 12.0659 30.9051L11.7471 31.3817V43.4566C11.7471 44.8865 12.863 46.1576 14.4571 46.1576H34.8622C36.2969 46.1576 37.5722 44.8865 37.5722 43.4566V31.3817H37.4128ZM34.2245 42.98H14.9354V32.4939C17.486 29.9518 20.9931 28.6808 24.6596 28.6808C28.1668 28.5219 31.6739 29.9518 34.2245 32.4939V42.98Z" fill="#0D5C63"/>
</g>
</g>
<defs>
<clipPath id="clip0_965_120">
<rect width="48" height="48" fill="white"/>
</clipPath>
<clipPath id="clip1_965_120">
<rect width="48" height="44.2105" fill="white" transform="translate(0.5 2)"/>
</clipPath>
</defs>
</svg>
