<svg width="48" height="48" viewBox="0 0 48 48" fill="none" xmlns="http://www.w3.org/2000/svg">
<g clip-path="url(#clip0_965_141)">
<g clip-path="url(#clip1_965_141)">
<path d="M43.0886 12.5255H38.019V7.45592C38.019 6.55955 37.6629 5.6999 37.0291 5.06608C36.3953 4.43225 35.5356 4.07617 34.6393 4.07617H14.3608C13.4644 4.07617 12.6048 4.43225 11.9709 5.06608C11.3371 5.6999 10.981 6.55955 10.981 7.45592V12.5255H5.91142C4.56687 12.5255 3.27739 13.0597 2.32665 14.0104C1.37592 14.9611 0.841797 16.2506 0.841797 17.5952V41.2534C0.841797 42.1497 1.19788 43.0094 1.8317 43.6432C2.46553 44.2771 3.32518 44.6331 4.22154 44.6331H44.7785C45.6749 44.6331 46.5345 44.2771 47.1683 43.6432C47.8022 43.0094 48.1582 42.1497 48.1582 41.2534V17.5952C48.1582 16.2506 47.6241 14.9611 46.6734 14.0104C45.7227 13.0597 44.4332 12.5255 43.0886 12.5255ZM14.3608 7.45592H34.6393V12.5255H14.3608V7.45592ZM44.7785 41.2534H4.22154V26.0445H17.7405V34.4939H31.2595V26.0445H44.7785V41.2534ZM21.1203 26.0445H27.8798V31.1141H21.1203V26.0445ZM4.22154 22.6648V17.5952C4.22154 17.147 4.39958 16.7172 4.7165 16.4002C5.03341 16.0833 5.46323 15.9053 5.91142 15.9053H43.0886C43.5368 15.9053 43.9666 16.0833 44.2836 16.4002C44.6005 16.7172 44.7785 17.147 44.7785 17.5952V22.6648H4.22154Z" fill="#0D5C63"/>
</g>
</g>
<defs>
<clipPath id="clip0_965_141">
<rect width="48" height="48" fill="white"/>
</clipPath>
<clipPath id="clip1_965_141">
<rect width="48" height="40.7089" fill="white" transform="translate(0.5 4)"/>
</clipPath>
</defs>
</svg>
