<svg width="48" height="48" viewBox="0 0 48 48" fill="none" xmlns="http://www.w3.org/2000/svg">
<g clip-path="url(#clip0_965_134)">
<path d="M15.5637 33.9949C14.7527 33.1802 15.1755 33.4099 13.2192 32.8839C12.3316 32.6449 11.5513 32.1855 10.8457 31.6352L6.61121 42.0639C6.20147 43.0736 6.96681 44.1705 8.05134 44.1292L12.9691 43.9408L16.3515 47.5296C17.0981 48.3208 18.4085 48.0742 18.8183 47.0646L23.6763 35.1002C22.6645 35.6664 21.5417 35.9983 20.3807 35.9983C18.5607 35.9983 16.8508 35.2867 15.5637 33.9949ZM42.2272 42.0639L37.9927 31.6352C37.2871 32.1864 36.5068 32.6449 35.6192 32.8839C33.6527 33.4127 34.0839 33.1821 33.2747 33.9949C31.9876 35.2867 30.2768 35.9983 28.4568 35.9983C27.2957 35.9983 26.1729 35.6655 25.1612 35.1002L30.0192 47.0646C30.4289 48.0742 31.7403 48.3208 32.486 47.5296L35.8693 43.9408L40.7871 44.1292C41.8716 44.1705 42.6369 43.0727 42.2272 42.0639ZM31.0459 31.8733C32.472 30.4155 32.6353 30.5411 34.6663 29.9852C35.9627 29.6299 36.9763 28.5939 37.3235 27.2683C38.0216 24.6058 37.8405 24.9274 39.7455 22.9792C40.6947 22.0089 41.0652 20.5942 40.718 19.2686C40.0208 16.608 40.0199 16.9792 40.718 14.3158C41.0652 12.9902 40.6947 11.5755 39.7455 10.6052C37.8405 8.65706 38.0216 8.97769 37.3235 6.31613C36.9763 4.9905 35.9627 3.95456 34.6663 3.59925C32.0641 2.88581 32.3777 3.07238 30.4709 1.12331C29.5217 0.153002 28.1376 -0.226685 26.8412 0.128627C24.24 0.841127 24.6031 0.842064 21.9972 0.128627C20.7008 -0.226685 19.3167 0.152065 18.3675 1.12331C16.4625 3.07144 16.7761 2.88581 14.1731 3.59925C12.8767 3.95456 11.8631 4.9905 11.5159 6.31613C10.8187 8.97769 10.9988 8.65706 9.09387 10.6052C8.14467 11.5755 7.77321 12.9902 8.12134 14.3158C8.81854 16.9746 8.81947 16.6033 8.12134 19.2677C7.77414 20.5933 8.14467 22.008 9.09387 22.9792C10.9988 24.9274 10.8177 24.6058 11.5159 27.2683C11.8631 28.5939 12.8767 29.6299 14.1731 29.9852C16.2619 30.5571 16.4177 30.4671 17.7925 31.8733C19.0273 33.1361 20.9509 33.3621 22.4349 32.4189C23.0284 32.0405 23.7168 31.8396 24.4197 31.8396C25.1226 31.8396 25.811 32.0405 26.4044 32.4189C27.8875 33.3621 29.8111 33.1361 31.0459 31.8733ZM15.6141 16.4946C15.6141 11.523 19.5565 7.49269 24.4192 7.49269C29.2819 7.49269 33.2243 11.523 33.2243 16.4946C33.2243 21.4661 29.2819 25.4964 24.4192 25.4964C19.5565 25.4964 15.6141 21.4661 15.6141 16.4946Z" fill="#0D5C63"/>
</g>
<defs>
<clipPath id="clip0_965_134">
<rect width="35.84" height="48" fill="white" transform="translate(6.5)"/>
</clipPath>
</defs>
</svg>
