<svg width="24" height="27" viewBox="0 0 24 27" fill="none" xmlns="http://www.w3.org/2000/svg">
<g clip-path="url(#clip0_964_17693)">
<path d="M23.71 1.71658C23.575 1.57688 23.4045 1.48016 23.2185 1.43778C23.0325 1.39541 22.8388 1.40915 22.66 1.47738L0.660001 9.79738C0.470269 9.87222 0.306921 10.0053 0.191652 10.179C0.0763829 10.3527 0.0146484 10.5587 0.0146484 10.7698C0.0146484 10.9808 0.0763829 11.1869 0.191652 11.3605C0.306921 11.5342 0.470269 11.6673 0.660001 11.7422L10.26 15.7358L14.1 25.7198C14.1721 25.9084 14.2958 26.071 14.4557 26.1874C14.6157 26.3039 14.8049 26.3691 15 26.375C15.2021 26.3707 15.3982 26.3028 15.5624 26.1802C15.7266 26.0577 15.8513 25.8863 15.92 25.6886L23.92 2.80858C23.9881 2.62458 24.0046 2.42423 23.9674 2.23088C23.9302 2.03754 23.8409 1.85917 23.71 1.71658ZM15 22.423L12.21 15.143L17 10.1614L15.59 8.69498L10.76 13.7182L3.8 10.775L21.33 4.19178L15 22.423Z" fill="#8EC2F2"/>
</g>
<defs>
<clipPath id="clip0_964_17693">
<rect width="24" height="26" fill="white" transform="translate(0 0.375)"/>
</clipPath>
</defs>
</svg>
