<svg width="24" height="25" viewBox="0 0 24 25" fill="none" xmlns="http://www.w3.org/2000/svg">
<g clip-path="url(#clip0_964_17684)">
<path d="M18.8478 12.4771C18.7365 12.3655 18.6043 12.2771 18.4587 12.2167C18.3131 12.1563 18.157 12.1252 17.9995 12.1252C17.8419 12.1252 17.6858 12.1563 17.5402 12.2167C17.3946 12.2771 17.2624 12.3655 17.1511 12.4771L15.2383 14.3899C14.3515 14.1259 12.6967 13.5259 11.6479 12.4771C10.5991 11.4283 9.99913 9.77351 9.73513 8.88672L11.6479 6.97394C11.7594 6.86259 11.8479 6.73035 11.9083 6.58477C11.9687 6.4392 11.9998 6.28315 11.9998 6.12555C11.9998 5.96795 11.9687 5.8119 11.9083 5.66632C11.8479 5.52074 11.7594 5.3885 11.6479 5.27716L6.84796 0.477204C6.73662 0.36567 6.60437 0.277186 6.4588 0.216813C6.31322 0.156441 6.15717 0.125366 5.99957 0.125366C5.84197 0.125366 5.68592 0.156441 5.54034 0.216813C5.39477 0.277186 5.26252 0.36567 5.15118 0.477204L1.89681 3.73157C1.44082 4.18757 1.18402 4.81396 1.19362 5.45355C1.22122 7.16234 1.67361 13.0975 6.35117 17.775C11.0287 22.4526 16.9639 22.9038 18.6738 22.9326H18.7074C19.341 22.9326 19.9398 22.683 20.3934 22.2294L23.6478 18.975C23.7593 18.8637 23.8478 18.7314 23.9082 18.5859C23.9686 18.4403 23.9996 18.2842 23.9996 18.1266C23.9996 17.969 23.9686 17.813 23.9082 17.6674C23.8478 17.5218 23.7593 17.3896 23.6478 17.2782L18.8478 12.4771ZM18.6954 20.5314C17.1979 20.5062 12.0739 20.1042 8.04795 16.077C4.00879 12.0379 3.61759 6.89594 3.5936 5.42835L5.99957 3.02238L9.10274 6.12555L7.55116 7.67713C7.41011 7.81807 7.30641 7.99193 7.24942 8.18301C7.19243 8.37408 7.18396 8.57635 7.22476 8.77152C7.25356 8.90952 7.95795 12.1819 9.94993 14.1739C11.9419 16.1658 15.2143 16.8702 15.3523 16.899C15.5473 16.941 15.7498 16.9332 15.941 16.8764C16.1323 16.8195 16.3062 16.7155 16.4467 16.5738L17.9995 15.0223L21.1026 18.1254L18.6954 20.5314Z" fill="#8EC2F2"/>
</g>
<defs>
<clipPath id="clip0_964_17684">
<rect width="24" height="24" fill="white" transform="translate(0 0.125366)"/>
</clipPath>
</defs>
</svg>
