<svg width="24" height="31" viewBox="0 0 24 31" fill="none" xmlns="http://www.w3.org/2000/svg">
<g clip-path="url(#clip0_964_17688)">
<path d="M11.9999 18.7502C15.3089 18.7502 17.9999 16.0593 17.9999 12.7503C17.9999 9.44134 15.3089 6.75037 11.9999 6.75037C8.69097 6.75037 6 9.44134 6 12.7503C6 16.0593 8.69097 18.7502 11.9999 18.7502ZM11.9999 9.75033C13.6544 9.75033 14.9999 11.0958 14.9999 12.7503C14.9999 14.4048 13.6544 15.7503 11.9999 15.7503C10.3455 15.7503 8.99997 14.4048 8.99997 12.7503C8.99997 11.0958 10.3455 9.75033 11.9999 9.75033Z" fill="#8EC2F2"/>
<path d="M11.13 30.471C11.3839 30.6523 11.688 30.7498 12 30.7498C12.312 30.7498 12.6161 30.6523 12.87 30.471C13.326 30.1486 24.0434 22.4101 23.9999 12.7502C23.9999 6.13381 18.6164 0.750366 12 0.750366C5.38357 0.750366 0.000132055 6.13381 0.000132055 12.7427C-0.0433675 22.4101 10.674 30.1486 11.13 30.471ZM12 3.75033C16.9634 3.75033 20.9999 7.78679 20.9999 12.7577C21.0314 19.4147 14.418 25.3921 12 27.3526C9.58353 25.3906 2.9686 19.4117 3.0001 12.7502C3.0001 7.78679 7.03655 3.75033 12 3.75033Z" fill="#8EC2F2"/>
</g>
<defs>
<clipPath id="clip0_964_17688">
<rect width="24" height="29.9997" fill="white" transform="translate(0 0.750366)"/>
</clipPath>
</defs>
</svg>
