<svg width="72" height="72" viewBox="0 0 72 72" fill="none" xmlns="http://www.w3.org/2000/svg">
<g clip-path="url(#clip0_964_17616)">
<path d="M69.8484 2.16199C69.4592 1.75903 68.9674 1.48003 68.4308 1.35781C67.8943 1.23558 67.3354 1.27521 66.8198 1.47202L3.3615 25.4708C2.81422 25.6867 2.34305 26.0706 2.01056 26.5716C1.67807 27.0726 1.5 27.6669 1.5 28.2756C1.5 28.8844 1.67807 29.4787 2.01056 29.9797C2.34305 30.4807 2.81422 30.8646 3.3615 31.0805L31.0524 42.5999L42.1287 71.3984C42.3368 71.9426 42.6935 72.4115 43.1549 72.7473C43.6162 73.0832 44.1619 73.2712 44.7248 73.2883C45.3077 73.2759 45.8733 73.08 46.347 72.7266C46.8207 72.3732 47.1804 71.8787 47.3785 71.3084L70.4542 5.31183C70.6507 4.78108 70.6981 4.20317 70.5909 3.64548C70.4836 3.08779 70.2261 2.5733 69.8484 2.16199ZM44.7248 61.8889L36.6771 40.89L50.4937 26.5207L46.4266 22.291L32.4946 36.7802L12.4187 28.2906L62.9834 9.30162L44.7248 61.8889Z" fill="#0D5C63"/>
</g>
<defs>
<clipPath id="clip0_964_17616">
<rect width="72" height="72" fill="white"/>
</clipPath>
</defs>
</svg>
