<svg width="72" height="72" viewBox="0 0 72 72" fill="none" xmlns="http://www.w3.org/2000/svg">
<g clip-path="url(#clip0_964_17595)">
<path d="M56.429 38.9947C56.0775 38.6426 55.66 38.3632 55.2004 38.1726C54.7408 37.982 54.2482 37.8839 53.7506 37.8839C53.2531 37.8839 52.7604 37.982 52.3008 38.1726C51.8413 38.3632 51.4238 38.6426 51.0722 38.9947L45.0335 45.0334C42.2339 44.1999 37.0097 42.3057 33.6987 38.9947C30.3876 35.6836 28.4934 30.4594 27.66 27.6598L33.6987 21.6211C34.0508 21.2696 34.3301 20.8521 34.5207 20.3925C34.7113 19.9329 34.8094 19.4403 34.8094 18.9427C34.8094 18.4452 34.7113 17.9525 34.5207 17.4929C34.3301 17.0333 34.0508 16.6159 33.6987 16.2643L18.5451 1.11076C18.1936 0.758646 17.7761 0.479298 17.3165 0.288701C16.8569 0.0981045 16.3642 0 15.8667 0C15.3692 0 14.8765 0.0981045 14.4169 0.288701C13.9573 0.479298 13.5398 0.758646 13.1883 1.11076L2.91418 11.3849C1.47459 12.8245 0.663873 14.802 0.69418 16.8212C0.781313 22.2159 2.20954 40.9533 16.9767 55.7204C31.7439 70.4876 50.4813 71.912 55.8797 72.003H55.9858C57.9861 72.003 59.8765 71.215 61.3085 69.783L71.5826 59.5088C71.9347 59.1573 72.2141 58.7398 72.4047 58.2802C72.5953 57.8207 72.6934 57.328 72.6934 56.8304C72.6934 56.3329 72.5953 55.8402 72.4047 55.3807C72.2141 54.9211 71.9347 54.5036 71.5826 54.1521L56.429 38.9947ZM55.9479 64.4224C51.22 64.3428 35.0435 63.0737 22.3335 50.3599C9.58175 37.6081 8.34674 21.3749 8.27097 16.7417L15.8667 9.14594L25.6635 18.9427L20.7651 23.8411C20.3198 24.2861 19.9924 24.835 19.8125 25.4382C19.6326 26.0414 19.6058 26.68 19.7346 27.2961C19.8256 27.7318 22.0494 38.0627 28.3381 44.3515C34.6268 50.6402 44.9578 52.864 45.3934 52.9549C46.0092 53.0874 46.6484 53.0627 47.2522 52.8833C47.856 52.7039 48.4049 52.3755 48.8485 51.9283L53.7506 47.0299L63.5474 56.8267L55.9479 64.4224Z" fill="#0D5C63"/>
</g>
<defs>
<clipPath id="clip0_964_17595">
<rect width="72" height="72" fill="white"/>
</clipPath>
</defs>
</svg>
